Coordinates
version=1
nRows=12
nColumns=46
inDegrees=yes

Units are S.I. units (second, meters, Newtons, ...)
Angles are in degrees.

endheader
time	pelvis_tilt	pelvis_list	pelvis_rotation	pelvis_tx	pelvis_ty	pelvis_tz	bb_angle	bb_tx	bb_ty	bb_tz	hip_flexion_r	hip_adduction_r	hip_rotation_r	knee_angle_r	knee_angle_r_beta	ankle_angle_r	subtalar_angle_r	mtp_angle_r	crank_angle_r	hip_flexion_l	hip_adduction_l	hip_rotation_l	knee_angle_l	knee_angle_l_beta	ankle_angle_l	subtalar_angle_l	mtp_angle_l	crank_angle_l	lumbar_extension	lumbar_bending	lumbar_rotation	arm_flex_r	arm_add_r	arm_rot_r	elbow_flex_r	pro_sup_r	wrist_flex_r	wrist_dev_r	arm_flex_l	arm_add_l	arm_rot_l	elbow_flex_l	pro_sup_l	wrist_flex_l	wrist_dev_l
      2.50000000	    -26.86906474	     -1.07522273	     30.54195965	      0.39615941	      1.06929915	     -0.22941277	      0.00000000	      0.50000000	      0.00000000	      0.25000000	     37.73984802	    -12.55922020	     -7.41085770	     56.90054426	      0.99310184	    -33.05881895	    -13.70750535	      0.00000000	      0.00000000	     75.98837939	      8.37429089	      2.72594386	     88.05992943	      1.53693571	     28.33853317	     18.57653502	      0.00000000	      0.00000000	    -52.28172818	      0.48996384	    -34.72814870	     59.24322663	     10.62403673	     15.08580755	     25.39981508	     44.49669956	      0.00000000	      0.00000000	     40.61728509	    -20.99548310	      4.41749654	    100.88657084	     49.34517334	      0.00000000	      0.00000000
      2.50500000	    -26.66824604	     -1.17207524	     29.80307629	      0.39579112	      1.06752934	     -0.22980240	      0.00000000	      0.50000000	      0.00000000	      0.25000000	     38.10317512	    -12.12347391	     -7.26177842	     58.49416473	      1.02091577	    -31.75350944	    -14.28764111	      0.00000000	      0.00000000	     75.61729294	      7.92129862	      2.67828714	     87.34256731	      1.52441538	     28.28830509	     18.10921995	      0.00000000	      0.00000000	    -52.24306725	      0.30766085	    -34.45890250	     59.50060674	     10.56761918	     15.11729731	     25.47587215	     44.52235137	      0.00000000	      0.00000000	     40.42780155	    -21.31604580	      4.22576289	    101.10977812	     49.36563238	      0.00000000	      0.00000000
      2.51000000	    -26.69728125	     -1.05479407	     28.98758065	      0.39535339	      1.06579284	     -0.23033386	      0.00000000	      0.50000000	      0.00000000	      0.25000000	     38.67123690	    -11.96856484	     -6.75406589	     60.11200687	      1.04915244	    -30.41404276	    -13.88659161	      0.00000000	      0.00000000	     75.25953524	      7.58151042	      2.34606196	     86.43014124	      1.50849054	     28.16608913	     17.26919783	      0.00000000	      0.00000000	    -52.12763430	     -0.08502253	    -34.71598874	     59.54513430	     10.91972333	     15.53196426	     25.61148488	     44.69018554	      0.00000000	      0.00000000	     39.30068824	    -22.26405504	      3.48489959	    102.68398181	     49.56960545	      0.00000000	      0.00000000
      2.51500000	    -26.35406319	     -1.04546722	     28.30067098	      0.39505171	      1.06435228	     -0.23115037	      0.00000000	      0.50000000	      0.00000000	      0.25000000	     38.79222855	    -11.66148004	     -6.67892444	     61.60769359	      1.07525710	    -29.52687701	    -14.47683382	      0.00000000	      0.00000000	     74.59341262	      7.28015465	      2.36988705	     85.60853989	      1.49415089	     28.16428975	     16.83717441	      0.00000000	      0.00000000	    -52.32052889	     -0.18592405	    -34.35795843	     59.76157651	     10.85116496	     15.58814228	     25.67401159	     44.71692784	      0.00000000	      0.00000000	     38.94749784	    -22.44428166	      3.23801344	    102.94624593	     49.59213435	      0.00000000	      0.00000000
      2.52000000	    -25.92442789	     -0.84259452	     27.34233790	      0.39555081	      1.06303239	     -0.23165092	      0.00000000	      0.50000000	      0.00000000	      0.25000000	     38.77208301	    -11.30489825	     -6.38125030	     63.11371742	      1.10154217	    -28.57327578	    -15.14988867	      0.00000000	      0.00000000	     73.60805797	      7.03405869	      2.66702281	     84.78806003	      1.47983081	     28.34298419	     16.12159016	      0.00000000	      0.00000000	    -52.68751760	     -0.62887469	    -33.98194858	     59.84874707	     10.82084057	     15.67682246	     25.76175710	     44.75682044	      0.00000000	      0.00000000	     38.40130693	    -22.66517427	      2.91679828	    103.38490397	     49.63910938	      0.00000000	      0.00000000
      2.52500000	    -25.69348763	     -0.53671294	     26.44480751	      0.39550157	      1.06166039	     -0.23260599	      0.00000000	      0.50000000	      0.00000000	      0.25000000	     38.98525437	    -11.26995770	     -5.98852988	     64.73512320	      1.12984104	    -27.42558927	    -15.05764714	      0.00000000	      0.00000000	     72.75724488	      6.81708039	      2.56300719	     83.86902125	      1.46379056	     28.32250247	     15.31010037	      0.00000000	      0.00000000	    -53.11863238	     -0.83825650	    -35.02228792	     60.10471975	     11.56845308	     17.15143555	     26.26349279	     45.22577966	      0.00000000	      0.00000000	     36.16827741	    -24.10802137	      0.64154211	    106.70937798	     49.97107364	      0.00000000	      0.00000000
      2.53000000	    -25.54914024	     -0.46273643	     25.60760104	      0.39503360	      1.06004839	     -0.23340090	      0.00000000	      0.50000000	      0.00000000	      0.25000000	     39.42413199	    -11.05654202	     -5.61489839	     66.40649246	      1.15901194	    -26.21038166	    -15.07833347	      0.00000000	      0.00000000	     72.09819089	      6.44191839	      2.36262148	     83.02598037	      1.44907672	     28.42331645	     14.60266438	      0.00000000	      0.00000000	    -53.14445531	     -1.11104048	    -34.75521696	     60.35483209	     11.49338635	     17.54239318	     26.14720756	     45.31132158	      0.00000000	      0.00000000	     35.82356241	    -24.19393115	      0.32757739	    107.11565314	     50.00230551	      0.00000000	      0.00000000
      2.53500000	    -25.22650560	     -0.48476208	     24.77068622	      0.39483555	      1.05871693	     -0.23419052	      0.00000000	      0.50000000	      0.00000000	      0.25000000	     39.65537495	    -10.67140901	     -5.34402576	     67.94189315	      1.18580974	    -25.21906411	    -15.46133533	      0.00000000	      0.00000000	     71.27780575	      6.11175788	      2.53204165	     82.04074663	      1.43188115	     28.44055883	     14.00452750	      0.00000000	      0.00000000	    -53.29294280	     -1.23297842	    -34.27614850	     60.61072724	     11.42164933	     17.65613727	     26.24888919	     45.35370693	      0.00000000	      0.00000000	     35.50763658	    -24.22371460	      0.13094950	    107.30269141	     50.01534795	      0.00000000	      0.00000000
      2.54000000	    -25.08594397	     -0.37350172	     23.82273005	      0.39466809	      1.05732334	     -0.23505217	      0.00000000	      0.50000000	      0.00000000	      0.25000000	     40.10292664	    -10.42391266	     -4.71390234	     69.51270891	      1.21322564	    -23.94334366	    -14.87636730	      0.00000000	      0.00000000	     70.50836104	      5.80033166	      2.37563469	     80.92298753	      1.41237257	     28.41696751	     12.77990043	      0.00000000	      0.00000000	    -53.42556494	     -1.49659153	    -34.43136986	     60.74790915	     11.36385891	     19.46364904	     26.65261549	     45.89996462	      0.00000000	      0.00000000	     34.17539591	    -24.37539311	     -1.32858922	    108.96646316	     50.12113704	      0.00000000	      0.00000000
      2.54500000	    -24.79692671	     -0.48224050	     22.94734333	      0.39439105	      1.05609153	     -0.23585107	      0.00000000	      0.50000000	      0.00000000	      0.25000000	     40.43952155	     -9.95839759	     -4.30389852	     71.05721812	      1.24018241	    -22.90645761	    -14.92830550	      0.00000000	      0.00000000	     69.69356367	      5.40018896	      2.61881557	     79.88003886	      1.39416968	     28.42279221	     12.17473034	      0.00000000	      0.00000000	    -53.55781917	     -1.63148771	    -33.88788791	     60.99307995	     11.25892962	     19.54020967	     26.72041414	     45.93103526	      0.00000000	      0.00000000	     33.92638801	    -24.22915505	     -1.50057327	    109.15145555	     50.13497913	      0.00000000	      0.00000000
      2.55000000	    -24.69574813	     -0.46660612	     22.00568273	      0.39393722	      1.05484691	     -0.23680908	      0.00000000	      0.50000000	      0.00000000	      0.25000000	     41.03655281	     -9.71772115	     -3.64917106	     72.75056156	      1.26973683	    -21.40218263	    -13.71127756	      0.00000000	      0.00000000	     68.95218256	      5.07867788	      2.64864955	     78.72330022	      1.37398079	     28.29690127	     11.26096614	      0.00000000	      0.00000000	    -53.60612626	     -1.97753563	    -33.52688274	     61.14792496	     11.14399810	     19.79310833	     27.01126893	     46.04818178	      0.00000000	      0.00000000	     33.51476299	    -23.74251330	     -2.06322414	    109.77628855	     50.18000210	      0.00000000	      0.00000000
      2.55500000	    -24.50135717	     -0.56963232	     21.10432393	      0.39343675	      1.05355322	     -0.23795726	      0.00000000	      0.50000000	      0.00000000	      0.25000000	     41.58164764	     -9.41759621	     -3.18725691	     74.46916840	      1.29973218	    -20.04726849	    -12.78209629	      0.00000000	      0.00000000	     68.19574339	      4.71953745	      2.82025986	     77.44086853	      1.35159813	     28.02019882	     10.43988520	      0.00000000	      0.00000000	    -53.69415346	     -2.11771534	    -33.16814735	     61.28954603	     11.05814413	     20.11715122	     27.36347105	     46.19035867	      0.00000000	      0.00000000	     32.99377280	    -23.36089329	     -2.74187373	    110.41339699	     50.21457872	      0.00000000	      0.00000000
